<svg width="206" height="35" viewBox="0 0 206 35" fill="none" xmlns="http://www.w3.org/2000/svg">
<path d="M75.2223 0H40.2344V34.9879H75.2223V0Z" fill="#0056FF"/>
<path d="M34.9879 0H0V34.9879H34.9879V0Z" fill="#0056FF"/>
<path d="M115.457 0H80.4688V34.9879H115.457V0Z" fill="#0056FF"/>
<path d="M118.659 0.343982V2.27558H118.258V0.343982H117.506V0H119.411V0.343982H118.659Z" fill="#0056FF"/>
<path d="M121.997 2.27558H121.611V0.536764H121.6L120.995 2.27558H120.685L120.08 0.536764H120.069V2.27558H119.698V0H120.284L120.84 1.68211H120.851L121.407 0H121.993V2.27558H121.997Z" fill="#0056FF"/>
<path d="M87.5378 6.24499H108.434V11.4085H101.112V28.6341H94.871V11.4085H87.5378V6.24499ZM16.2352 6.24499H7.42773V28.6341H16.2352C22.4798 28.6341 27.5601 23.6104 27.5601 17.4376C27.5601 11.2649 22.4798 6.24499 16.2352 6.24499ZM15.1843 11.5899C18.851 11.5899 21.1265 13.8315 21.1265 17.4376C21.1265 21.1005 18.8812 23.2891 15.1239 23.2891H13.6232V11.5899H15.1843ZM70.4785 28.6341L61.0549 6.24121H61.0474H54.3945H54.387L44.9596 28.6341H51.0681L52.5953 25.0053H62.8429L64.37 28.6341H70.4785ZM60.6656 20.3105H54.7688L57.7172 13.3061L60.6656 20.3105Z" fill="white"/>
<path d="M130.028 9.92679H135.154V11.7374H130.028V15.7745H127.488V5.62891H135.423V7.50758H130.028V9.92679Z" fill="white"/>
<path d="M138.556 9.40917H138.617C139.052 8.60024 139.83 8.06348 141.013 8.06348C141.187 8.06348 141.369 8.08616 141.49 8.12018V10.2143C141.304 10.1916 140.957 10.1576 140.643 10.1576C139.505 10.1576 138.658 10.6112 138.658 12.0816V15.7785H136.296V8.24114H138.56L138.556 9.40917Z" fill="white"/>
<path d="M149.651 13.5181C149.368 14.5765 148.268 15.9524 145.682 15.9524C143.153 15.9524 141.607 14.4442 141.607 12.0212C141.607 9.57927 143.116 8.06348 145.675 8.06348C148.241 8.06348 149.92 9.58683 149.727 12.471H144.027C144.046 13.6617 144.692 14.4328 145.682 14.4328C146.71 14.4328 147.104 13.8356 147.232 13.3631L149.651 13.5181ZM144.049 11.1026H147.311C147.255 10.2257 146.684 9.54525 145.679 9.54525C144.677 9.54525 144.106 10.2257 144.049 11.1026Z" fill="white"/>
<path d="M152.936 5.48535V7.25062H150.569V5.48535H152.936ZM152.936 8.24099V15.7746H150.569V8.24099H152.936Z" fill="white"/>
<path d="M161.856 15.1888C161.856 17.7214 160.076 18.5682 157.812 18.5682C155.872 18.5682 154.308 17.8651 153.816 16.0658L156.167 15.8579C156.409 16.6177 156.946 16.939 157.812 16.939C158.81 16.939 159.494 16.4514 159.494 15.1397V14.4139H159.433C158.968 15.0452 158.205 15.3816 157.101 15.3816C155.215 15.3816 153.778 13.9868 153.778 11.715C153.778 9.45831 155.215 8.06348 157.158 8.06348C158.133 8.06348 159.029 8.34698 159.535 9.16346H159.596V8.24114H161.86L161.856 15.1888ZM159.611 11.715C159.611 10.5016 158.93 9.75315 157.902 9.75315C156.859 9.75315 156.186 10.5054 156.186 11.715C156.186 12.951 156.859 13.7146 157.902 13.7146C158.93 13.7146 159.611 12.951 159.611 11.715Z" fill="white"/>
<path d="M165.324 9.25026C165.838 8.58119 166.62 8.05955 167.792 8.05955C169.296 8.05955 170.506 8.91761 170.506 10.8265V15.7708H168.143V11.3784C168.143 10.2709 167.66 9.86262 166.802 9.86262C166.008 9.86262 165.267 10.509 165.267 11.7564V15.7746H162.904V5.48535H165.267V9.25026H165.324Z" fill="white"/>
<path d="M176.111 14.0923V15.7707C175.82 15.8652 175.192 15.9483 174.603 15.9483C172.913 15.9483 172.18 15.5212 172.18 13.9525V9.69996H170.947V8.24087H172.18V6.1543H174.542V8.24087H176.149V9.69996H174.542V13.4686C174.542 14.0621 174.788 14.1755 175.351 14.1755C175.684 14.1755 175.948 14.1339 176.111 14.0923Z" fill="white"/>
<path d="M134.421 28.6155C133.54 29.3111 132.437 29.6928 131.254 29.6928C129.084 29.6928 127.062 28.7403 127.062 26.6953C127.062 25.3383 127.821 24.5331 129.175 23.9094L129.53 23.7469C128.653 22.7905 128.415 22.2122 128.415 21.5469C128.415 20.1596 129.787 19.1201 131.7 19.1201C133.612 19.1201 134.984 20.1596 134.984 21.5469C134.984 22.5977 134.179 23.1836 133.185 23.7053L132.569 24.0304L134.187 25.6293C134.331 25.1719 134.402 24.6843 134.402 24.1929H136.41C136.41 25.3194 136.149 26.3059 135.699 27.1186L138.099 29.4925H135.313L134.421 28.6155ZM131.254 28.0032C132.006 28.0032 132.629 27.7461 133.117 27.3228L130.747 24.9754L130.607 25.0472C129.825 25.4592 129.401 25.9506 129.401 26.6159C129.398 27.4437 130.082 28.0032 131.254 28.0032ZM130.607 21.6263C130.607 21.9892 130.842 22.3029 131.405 22.8775L131.703 22.7414C132.388 22.4276 132.781 22.1404 132.781 21.6263C132.781 21.1613 132.433 20.651 131.696 20.651C130.955 20.651 130.607 21.1613 130.607 21.6263Z" fill="white"/>
<path d="M144.159 27.2166L143.369 29.4884H140.696L144.571 19.3428H147.95L151.825 29.4884H149.111L148.313 27.2166H144.159ZM146.253 21.3613H146.192L144.771 25.4551H147.693L146.253 21.3613Z" fill="white"/>
<path d="M154.667 22.9681C155.166 22.299 155.963 21.7773 157.18 21.7773C158.738 21.7773 159.947 22.6354 159.947 24.5443V29.4886H157.585V25.0924C157.585 23.9849 157.101 23.5766 156.243 23.5766C155.438 23.5766 154.708 24.1588 154.708 25.4024V29.4848H152.346V21.955H154.61V22.9643L154.667 22.9681Z" fill="white"/>
<path d="M168.63 27.871V29.4926C168.434 29.5493 168.052 29.6022 167.602 29.6022C166.616 29.6022 166.045 29.3528 165.78 28.7366H165.72C165.232 29.3414 164.321 29.6703 163.346 29.6703C161.872 29.6703 160.632 28.85 160.632 27.4476C160.632 25.8336 161.747 25.2325 163.743 24.9793C165.255 24.7827 165.64 24.5824 165.64 24.1439C165.64 23.6298 165.247 23.3198 164.506 23.3198C163.852 23.3198 163.331 23.6714 163.119 24.3631L160.919 24.1061C161.256 22.6394 162.631 21.7852 164.54 21.7852C166.91 21.7852 168.003 22.768 168.003 24.2951V27.4854C168.003 27.8559 168.124 27.9277 168.343 27.9277C168.426 27.9201 168.551 27.8975 168.63 27.871ZM165.64 25.8676C165.402 26.0377 164.869 26.136 164.219 26.2342C163.535 26.3514 163.043 26.6803 163.043 27.3002C163.043 27.8445 163.425 28.1885 164.015 28.1885C164.71 28.1885 165.644 27.7274 165.644 26.5782V25.8676H165.64Z" fill="white"/>
<path d="M171.56 19.2031V29.4924H169.197V19.2031H171.56Z" fill="white"/>
<path d="M177.861 29.4888C176.932 31.9723 175.888 32.2822 174.452 32.2822C173.885 32.2822 173.363 32.2482 173.034 32.1953V30.3771C173.28 30.4225 173.605 30.464 174.036 30.464C174.735 30.464 175.004 30.275 175.261 29.6627L175.348 29.4472L172.191 21.959H174.762L176.535 26.8352H176.595L178.16 21.959H180.693L177.861 29.4888Z" fill="white"/>
<path d="M185.955 27.81V29.4883C185.663 29.5828 185.036 29.666 184.446 29.666C182.757 29.666 182.023 29.2388 182.023 27.6701V23.4138H180.791V21.9547H182.023V19.8682H184.386V21.9547H185.992V23.4138H184.386V27.1825C184.386 27.776 184.632 27.8894 185.195 27.8894C185.527 27.8932 185.792 27.8516 185.955 27.81Z" fill="white"/>
<path d="M189.19 19.2031V20.9684H186.823V19.2031H189.19ZM189.19 21.955V29.4886H186.823V21.955H189.19Z" fill="white"/>
<path d="M195.642 26.6383L198.046 26.8727C197.698 28.2297 196.629 29.6661 194.073 29.6661C191.537 29.6661 190.014 28.1655 190.014 25.7273C190.014 23.2854 191.537 21.7734 194.073 21.7734C196.629 21.7734 197.638 23.2363 197.944 24.2683L195.612 24.6841C195.43 24.0906 195.026 23.4215 194.07 23.4215C193.072 23.4215 192.422 24.1473 192.422 25.7236C192.422 27.2998 193.072 28.018 194.07 28.018C195.056 28.0256 195.468 27.3452 195.642 26.6383Z" fill="white"/>
<path d="M203.581 24.2494C203.445 23.5803 202.897 23.2098 202.175 23.2098C201.498 23.2098 201.007 23.4858 201.007 23.9999C201.007 24.4875 201.524 24.6349 202.318 24.7597L203.142 24.8806C204.586 25.1074 206 25.5119 206 27.2318C206 28.9252 204.371 29.6661 202.231 29.6661C200.141 29.6661 198.633 28.8081 198.368 27.2923L200.591 27.039C200.75 27.8442 201.347 28.2373 202.254 28.2373C203.067 28.2373 203.588 27.8971 203.588 27.3339C203.588 26.8727 203.048 26.6572 202.19 26.5249L201.29 26.3889C200.005 26.1961 198.644 25.7538 198.644 24.1133C198.644 22.5975 200.3 21.7734 202.156 21.7734C204.05 21.7734 205.497 22.5975 205.762 24.0037L203.581 24.2494Z" fill="white"/>
</svg>
